<svg xmlns="http://www.w3.org/2000/svg" viewBox="0 0 360 360">
  <style>
    path { fill: #3d2b1f; }
    @media (prefers-color-scheme: dark) {
      path { fill: #d4c8b8; }
    }
  </style>
  <path d="M181.458,58 C191.383,58 199.458,66.075 199.458,76 C199.458,85.925 191.383,94 181.458,94 C171.533,94 163.458,85.925 163.458,76 C163.458,66.075 171.533,58 181.458,58 M233.999,112 L233.999,137.245 C233.999,160.161 219.644,179.775 199.458,187.604 L199.458,126.904 C220.408,119.473 235.458,99.466 235.458,76 C235.458,46.224 211.233,22 181.458,22 C151.683,22 127.458,46.224 127.458,76 C127.458,99.466 142.508,119.473 163.458,126.904 L163.458,188.644 C141.751,181.641 125.999,161.252 125.999,137.245 L125.999,112 C125.999,82.224 101.775,58 72,58 L72,94 C81.924,94 89.999,102.075 89.999,112 L89.999,137.245 C89.999,181.222 121.706,217.927 163.458,225.716 L163.458,265.93 L127.595,265.93 L127.595,301.93 L163.458,301.93 L163.458,338.666 L199.458,338.666 L199.458,301.93 L235.321,301.93 L235.321,265.93 L199.458,265.93 L199.458,225.12 C239.761,216.202 269.999,180.191 269.999,137.245 L269.999,112 C269.999,102.075 278.074,94 287.999,94 L287.999,58 C258.224,58 233.999,82.224 233.999,112"/>
</svg>